G04 #@! TF.FileFunction,Soldermask,Bot*
%FSLAX46Y46*%
G04 Gerber Fmt 4.6, Leading zero omitted, Abs format (unit mm)*
G04 Created by KiCad (PCBNEW 4.0.7) date 11/11/20 19:27:04*
%MOMM*%
%LPD*%
G01*
G04 APERTURE LIST*
%ADD10C,0.100000*%
%ADD11C,2.000000*%
%ADD12O,2.000000X2.000000*%
%ADD13C,2.400000*%
%ADD14R,2.000000X2.000000*%
%ADD15R,2.200000X2.200000*%
%ADD16C,2.200000*%
%ADD17R,2.600000X2.600000*%
%ADD18O,2.600000X2.600000*%
%ADD19R,3.900000X3.900000*%
%ADD20O,2.900000X1.900000*%
%ADD21C,1.920000*%
%ADD22R,1.920000X1.920000*%
%ADD23O,2.200000X2.200000*%
%ADD24C,2.800000*%
%ADD25O,2.800000X2.800000*%
%ADD26C,3.500000*%
%ADD27R,3.400000X3.400000*%
%ADD28C,3.400000*%
G04 APERTURE END LIST*
D10*
D11*
X87450000Y-179100000D03*
D12*
X79830000Y-179100000D03*
D13*
X78000000Y-45200000D03*
X93240000Y-45200000D03*
X103400000Y-45200000D03*
X98320000Y-45200000D03*
X78000000Y-52800000D03*
X98320000Y-52800000D03*
X93240000Y-52800000D03*
X103400000Y-52800000D03*
D14*
X58500000Y-169500000D03*
D11*
X61000000Y-169500000D03*
X58000000Y-175000000D03*
X63000000Y-175000000D03*
X74000000Y-163000000D03*
X69000000Y-163000000D03*
D15*
X80770000Y-183910000D03*
D16*
X78230000Y-183910000D03*
D17*
X72000000Y-158000000D03*
D18*
X72000000Y-150380000D03*
D15*
X87400000Y-183910000D03*
D16*
X84860000Y-183910000D03*
D19*
X39500000Y-175000000D03*
X39500000Y-181000000D03*
X44200000Y-178000000D03*
D20*
X25460000Y-163000000D03*
X30540000Y-163000000D03*
X25460000Y-155000000D03*
X30540000Y-155000000D03*
X112460000Y-163000000D03*
X117540000Y-163000000D03*
X112460000Y-155000000D03*
X117540000Y-155000000D03*
X26460000Y-26000000D03*
X31540000Y-26000000D03*
X26460000Y-32000000D03*
X31540000Y-32000000D03*
X112460000Y-25000000D03*
X117540000Y-25000000D03*
X112460000Y-31000000D03*
X117540000Y-31000000D03*
X26460000Y-62000000D03*
X31540000Y-62000000D03*
X26460000Y-68000000D03*
X31540000Y-68000000D03*
X112460000Y-62000000D03*
X117540000Y-62000000D03*
X112460000Y-67000000D03*
X117540000Y-67000000D03*
X26460000Y-110000000D03*
X31540000Y-110000000D03*
X26460000Y-104000000D03*
X31540000Y-104000000D03*
X112460000Y-110000000D03*
X117540000Y-110000000D03*
X112460000Y-104000000D03*
X117540000Y-104000000D03*
D21*
X69500000Y-180960000D03*
X69500000Y-178420000D03*
D22*
X69500000Y-183500000D03*
D15*
X99000000Y-175000000D03*
D23*
X99000000Y-177540000D03*
X99000000Y-180080000D03*
D11*
X73500000Y-185000000D03*
D12*
X73500000Y-177380000D03*
D11*
X66500000Y-174500000D03*
D12*
X66500000Y-166880000D03*
D11*
X73500000Y-167000000D03*
D12*
X73500000Y-174620000D03*
D11*
X77000000Y-174500000D03*
D12*
X77000000Y-166880000D03*
D11*
X70000000Y-167000000D03*
D12*
X70000000Y-174620000D03*
D11*
X80000000Y-171000000D03*
D12*
X87620000Y-171000000D03*
D24*
X30000000Y-99000000D03*
D25*
X30000000Y-73600000D03*
D24*
X115000000Y-98000000D03*
D25*
X115000000Y-72600000D03*
D24*
X23000000Y-144500000D03*
D25*
X23000000Y-119100000D03*
D24*
X121000000Y-143000000D03*
D25*
X121000000Y-117600000D03*
D13*
X65000000Y-162800000D03*
X49760000Y-162800000D03*
X39600000Y-162800000D03*
X44680000Y-162800000D03*
X65000000Y-155200000D03*
X44680000Y-155200000D03*
X49760000Y-155200000D03*
X39600000Y-155200000D03*
X65000000Y-147800000D03*
X49760000Y-147800000D03*
X39600000Y-147800000D03*
X44680000Y-147800000D03*
X65000000Y-140200000D03*
X44680000Y-140200000D03*
X49760000Y-140200000D03*
X39600000Y-140200000D03*
X65000000Y-126800000D03*
X49760000Y-126800000D03*
X39600000Y-126800000D03*
X44680000Y-126800000D03*
X65000000Y-119200000D03*
X44680000Y-119200000D03*
X49760000Y-119200000D03*
X39600000Y-119200000D03*
X65000000Y-111800000D03*
X49760000Y-111800000D03*
X39600000Y-111800000D03*
X44680000Y-111800000D03*
X65000000Y-104200000D03*
X44680000Y-104200000D03*
X49760000Y-104200000D03*
X39600000Y-104200000D03*
X78000000Y-155200000D03*
X93240000Y-155200000D03*
X103400000Y-155200000D03*
X98320000Y-155200000D03*
X78000000Y-162800000D03*
X98320000Y-162800000D03*
X93240000Y-162800000D03*
X103400000Y-162800000D03*
X78000000Y-140200000D03*
X93240000Y-140200000D03*
X103400000Y-140200000D03*
X98320000Y-140200000D03*
X78000000Y-147800000D03*
X98320000Y-147800000D03*
X93240000Y-147800000D03*
X103400000Y-147800000D03*
X78000000Y-119200000D03*
X93240000Y-119200000D03*
X103400000Y-119200000D03*
X98320000Y-119200000D03*
X78000000Y-126800000D03*
X98320000Y-126800000D03*
X93240000Y-126800000D03*
X103400000Y-126800000D03*
X78000000Y-104200000D03*
X93240000Y-104200000D03*
X103400000Y-104200000D03*
X98320000Y-104200000D03*
X78000000Y-111800000D03*
X98320000Y-111800000D03*
X93240000Y-111800000D03*
X103400000Y-111800000D03*
X65000000Y-36800000D03*
X49760000Y-36800000D03*
X39600000Y-36800000D03*
X44680000Y-36800000D03*
X65000000Y-29200000D03*
X44680000Y-29200000D03*
X49760000Y-29200000D03*
X39600000Y-29200000D03*
X65000000Y-52800000D03*
X49760000Y-52800000D03*
X39600000Y-52800000D03*
X44680000Y-52800000D03*
X65000000Y-45200000D03*
X44680000Y-45200000D03*
X49760000Y-45200000D03*
X39600000Y-45200000D03*
X65000000Y-75800000D03*
X49760000Y-75800000D03*
X39600000Y-75800000D03*
X44680000Y-75800000D03*
X65000000Y-68200000D03*
X44680000Y-68200000D03*
X49760000Y-68200000D03*
X39600000Y-68200000D03*
X65000000Y-90800000D03*
X49760000Y-90800000D03*
X39600000Y-90800000D03*
X44680000Y-90800000D03*
X65000000Y-83200000D03*
X44680000Y-83200000D03*
X49760000Y-83200000D03*
X39600000Y-83200000D03*
X78000000Y-29200000D03*
X93240000Y-29200000D03*
X103400000Y-29200000D03*
X98320000Y-29200000D03*
X78000000Y-36800000D03*
X98320000Y-36800000D03*
X93240000Y-36800000D03*
X103400000Y-36800000D03*
X78000000Y-68200000D03*
X93240000Y-68200000D03*
X103400000Y-68200000D03*
X98320000Y-68200000D03*
X78000000Y-75800000D03*
X98320000Y-75800000D03*
X93240000Y-75800000D03*
X103400000Y-75800000D03*
X78000000Y-83200000D03*
X93240000Y-83200000D03*
X103400000Y-83200000D03*
X98320000Y-83200000D03*
X78000000Y-90800000D03*
X98320000Y-90800000D03*
X93240000Y-90800000D03*
X103400000Y-90800000D03*
D26*
X123000000Y-185000000D03*
X22000000Y-185000000D03*
X123000000Y-16000000D03*
X22000000Y-16000000D03*
D27*
X53000000Y-182500000D03*
D28*
X58080000Y-182500000D03*
X63160000Y-182500000D03*
D17*
X80020000Y-175690000D03*
D18*
X87640000Y-175690000D03*
M02*
