M48
;DRILL file {KiCad 4.0.7} date 10/31/20 22:05:05
;FORMAT={-:-/ absolute / metric / decimal}
FMAT,2
METRIC,TZ
T1C0.800
T2C0.900
T3C1.000
T4C1.100
T5C1.200
T6C1.300
T7C1.500
T8C1.520
%
G90
G05
M71
T1
X58.Y-175.
X58.5Y-169.5
X61.Y-169.5
X63.Y-175.
X66.5Y-166.88
X66.5Y-174.5
X69.Y-163.
X69.5Y-178.42
X69.5Y-180.96
X69.5Y-183.5
X70.Y-167.
X70.Y-174.62
X73.5Y-167.
X73.5Y-174.62
X73.5Y-177.38
X73.5Y-185.
X74.Y-163.
X77.Y-166.88
X77.Y-174.5
X80.Y-171.
X80.Y-175.
X87.62Y-171.
X87.62Y-175.
T2
X78.46Y-181.
X81.Y-181.
X84.96Y-181.
X87.5Y-181.
T3
X99.Y-175.
X99.Y-177.54
X99.Y-180.08
T4
X72.Y-150.38
X72.Y-158.
T5
X23.Y-119.1
X23.Y-144.5
X30.Y-73.6
X30.Y-99.
X115.Y-72.6
X115.Y-98.
X121.Y-117.6
X121.Y-143.
T6
X39.6Y-29.2
X39.6Y-36.8
X39.6Y-45.2
X39.6Y-52.8
X39.6Y-68.2
X39.6Y-75.8
X39.6Y-83.2
X39.6Y-90.8
X39.6Y-104.2
X39.6Y-111.8
X39.6Y-119.2
X39.6Y-126.8
X39.6Y-140.2
X39.6Y-147.8
X39.6Y-155.2
X39.6Y-162.8
X44.68Y-29.2
X44.68Y-36.8
X44.68Y-45.2
X44.68Y-52.8
X44.68Y-68.2
X44.68Y-75.8
X44.68Y-83.2
X44.68Y-90.8
X44.68Y-104.2
X44.68Y-111.8
X44.68Y-119.2
X44.68Y-126.8
X44.68Y-140.2
X44.68Y-147.8
X44.68Y-155.2
X44.68Y-162.8
X49.76Y-29.2
X49.76Y-36.8
X49.76Y-45.2
X49.76Y-52.8
X49.76Y-68.2
X49.76Y-75.8
X49.76Y-83.2
X49.76Y-90.8
X49.76Y-104.2
X49.76Y-111.8
X49.76Y-119.2
X49.76Y-126.8
X49.76Y-140.2
X49.76Y-147.8
X49.76Y-155.2
X49.76Y-162.8
X65.Y-29.2
X65.Y-36.8
X65.Y-45.2
X65.Y-52.8
X65.Y-68.2
X65.Y-75.8
X65.Y-83.2
X65.Y-90.8
X65.Y-104.2
X65.Y-111.8
X65.Y-119.2
X65.Y-126.8
X65.Y-140.2
X65.Y-147.8
X65.Y-155.2
X65.Y-162.8
X78.Y-29.2
X78.Y-36.8
X78.Y-45.2
X78.Y-52.8
X78.Y-68.2
X78.Y-75.8
X78.Y-83.2
X78.Y-90.8
X78.Y-104.2
X78.Y-111.8
X78.Y-119.2
X78.Y-126.8
X78.Y-140.2
X78.Y-147.8
X78.Y-155.2
X78.Y-162.8
X93.24Y-29.2
X93.24Y-36.8
X93.24Y-45.2
X93.24Y-52.8
X93.24Y-68.2
X93.24Y-75.8
X93.24Y-83.2
X93.24Y-90.8
X93.24Y-104.2
X93.24Y-111.8
X93.24Y-119.2
X93.24Y-126.8
X93.24Y-140.2
X93.24Y-147.8
X93.24Y-155.2
X93.24Y-162.8
X98.32Y-29.2
X98.32Y-36.8
X98.32Y-45.2
X98.32Y-52.8
X98.32Y-68.2
X98.32Y-75.8
X98.32Y-83.2
X98.32Y-90.8
X98.32Y-104.2
X98.32Y-111.8
X98.32Y-119.2
X98.32Y-126.8
X98.32Y-140.2
X98.32Y-147.8
X98.32Y-155.2
X98.32Y-162.8
X103.4Y-29.2
X103.4Y-36.8
X103.4Y-45.2
X103.4Y-52.8
X103.4Y-68.2
X103.4Y-75.8
X103.4Y-83.2
X103.4Y-90.8
X103.4Y-104.2
X103.4Y-111.8
X103.4Y-119.2
X103.4Y-126.8
X103.4Y-140.2
X103.4Y-147.8
X103.4Y-155.2
X103.4Y-162.8
T7
X21.Y-54.
X21.Y-78.5
X29.5Y-129.
X30.5Y-144.
X34.5Y-55.5
X34.5Y-121.5
X39.5Y-62.
X42.5Y-133.5
X50.Y-62.
X94.Y-62.
X103.Y-133.
X106.5Y-62.
X110.Y-57.
X112.5Y-121.5
X112.5Y-141.
X117.5Y-133.5
X124.Y-53.5
X124.Y-75.5
T8
X53.Y-182.5
X58.08Y-182.5
X63.16Y-182.5
T3
X38.5Y-175.G85X40.5Y-175.
G05
X38.5Y-181.G85X40.5Y-181.
G05
X44.2Y-179.G85X44.2Y-177.
G05
T4
X25.01Y-155.G85X25.91Y-155.
G05
X25.01Y-163.G85X25.91Y-163.
G05
X26.01Y-26.G85X26.91Y-26.
G05
X26.01Y-32.G85X26.91Y-32.
G05
X26.01Y-62.G85X26.91Y-62.
G05
X26.01Y-68.G85X26.91Y-68.
G05
X26.01Y-104.G85X26.91Y-104.
G05
X26.01Y-110.G85X26.91Y-110.
G05
X30.09Y-155.G85X30.99Y-155.
G05
X30.09Y-163.G85X30.99Y-163.
G05
X31.09Y-26.G85X31.99Y-26.
G05
X31.09Y-32.G85X31.99Y-32.
G05
X31.09Y-62.G85X31.99Y-62.
G05
X31.09Y-68.G85X31.99Y-68.
G05
X31.09Y-104.G85X31.99Y-104.
G05
X31.09Y-110.G85X31.99Y-110.
G05
X112.01Y-25.G85X112.91Y-25.
G05
X112.01Y-31.G85X112.91Y-31.
G05
X112.01Y-62.G85X112.91Y-62.
G05
X112.01Y-67.G85X112.91Y-67.
G05
X112.01Y-104.G85X112.91Y-104.
G05
X112.01Y-110.G85X112.91Y-110.
G05
X112.01Y-155.G85X112.91Y-155.
G05
X112.01Y-163.G85X112.91Y-163.
G05
X117.09Y-25.G85X117.99Y-25.
G05
X117.09Y-31.G85X117.99Y-31.
G05
X117.09Y-62.G85X117.99Y-62.
G05
X117.09Y-67.G85X117.99Y-67.
G05
X117.09Y-104.G85X117.99Y-104.
G05
X117.09Y-110.G85X117.99Y-110.
G05
X117.09Y-155.G85X117.99Y-155.
G05
X117.09Y-163.G85X117.99Y-163.
G05
T0
M30
