G04 #@! TF.FileFunction,Copper,L2,Bot,Signal*
%FSLAX46Y46*%
G04 Gerber Fmt 4.6, Leading zero omitted, Abs format (unit mm)*
G04 Created by KiCad (PCBNEW 4.0.7) date 11/11/20 19:27:04*
%MOMM*%
%LPD*%
G01*
G04 APERTURE LIST*
%ADD10C,0.100000*%
%ADD11C,1.600000*%
%ADD12O,1.600000X1.600000*%
%ADD13C,2.000000*%
%ADD14R,1.600000X1.600000*%
%ADD15R,1.800000X1.800000*%
%ADD16C,1.800000*%
%ADD17R,2.200000X2.200000*%
%ADD18O,2.200000X2.200000*%
%ADD19R,3.500000X3.500000*%
%ADD20O,2.500000X1.500000*%
%ADD21C,1.520000*%
%ADD22R,1.520000X1.520000*%
%ADD23O,1.800000X1.800000*%
%ADD24C,2.400000*%
%ADD25O,2.400000X2.400000*%
%ADD26R,3.000000X3.000000*%
%ADD27C,3.000000*%
%ADD28C,2.500000*%
%ADD29C,1.000000*%
%ADD30C,3.500000*%
%ADD31C,4.000000*%
G04 APERTURE END LIST*
D10*
D11*
X87450000Y-179100000D03*
D12*
X79830000Y-179100000D03*
D13*
X78000000Y-45200000D03*
X93240000Y-45200000D03*
X103400000Y-45200000D03*
X98320000Y-45200000D03*
X78000000Y-52800000D03*
X98320000Y-52800000D03*
X93240000Y-52800000D03*
X103400000Y-52800000D03*
D14*
X58500000Y-169500000D03*
D11*
X61000000Y-169500000D03*
X58000000Y-175000000D03*
X63000000Y-175000000D03*
X74000000Y-163000000D03*
X69000000Y-163000000D03*
D15*
X80770000Y-183910000D03*
D16*
X78230000Y-183910000D03*
D17*
X72000000Y-158000000D03*
D18*
X72000000Y-150380000D03*
D15*
X87400000Y-183910000D03*
D16*
X84860000Y-183910000D03*
D19*
X39500000Y-175000000D03*
X39500000Y-181000000D03*
X44200000Y-178000000D03*
D20*
X25460000Y-163000000D03*
X30540000Y-163000000D03*
X25460000Y-155000000D03*
X30540000Y-155000000D03*
X112460000Y-163000000D03*
X117540000Y-163000000D03*
X112460000Y-155000000D03*
X117540000Y-155000000D03*
X26460000Y-26000000D03*
X31540000Y-26000000D03*
X26460000Y-32000000D03*
X31540000Y-32000000D03*
X112460000Y-25000000D03*
X117540000Y-25000000D03*
X112460000Y-31000000D03*
X117540000Y-31000000D03*
X26460000Y-62000000D03*
X31540000Y-62000000D03*
X26460000Y-68000000D03*
X31540000Y-68000000D03*
X112460000Y-62000000D03*
X117540000Y-62000000D03*
X112460000Y-67000000D03*
X117540000Y-67000000D03*
X26460000Y-110000000D03*
X31540000Y-110000000D03*
X26460000Y-104000000D03*
X31540000Y-104000000D03*
X112460000Y-110000000D03*
X117540000Y-110000000D03*
X112460000Y-104000000D03*
X117540000Y-104000000D03*
D21*
X69500000Y-180960000D03*
X69500000Y-178420000D03*
D22*
X69500000Y-183500000D03*
D15*
X99000000Y-175000000D03*
D23*
X99000000Y-177540000D03*
X99000000Y-180080000D03*
D11*
X73500000Y-185000000D03*
D12*
X73500000Y-177380000D03*
D11*
X66500000Y-174500000D03*
D12*
X66500000Y-166880000D03*
D11*
X73500000Y-167000000D03*
D12*
X73500000Y-174620000D03*
D11*
X77000000Y-174500000D03*
D12*
X77000000Y-166880000D03*
D11*
X70000000Y-167000000D03*
D12*
X70000000Y-174620000D03*
D11*
X80000000Y-171000000D03*
D12*
X87620000Y-171000000D03*
D24*
X30000000Y-99000000D03*
D25*
X30000000Y-73600000D03*
D24*
X115000000Y-98000000D03*
D25*
X115000000Y-72600000D03*
D24*
X23000000Y-144500000D03*
D25*
X23000000Y-119100000D03*
D24*
X121000000Y-143000000D03*
D25*
X121000000Y-117600000D03*
D13*
X65000000Y-162800000D03*
X49760000Y-162800000D03*
X39600000Y-162800000D03*
X44680000Y-162800000D03*
X65000000Y-155200000D03*
X44680000Y-155200000D03*
X49760000Y-155200000D03*
X39600000Y-155200000D03*
X65000000Y-147800000D03*
X49760000Y-147800000D03*
X39600000Y-147800000D03*
X44680000Y-147800000D03*
X65000000Y-140200000D03*
X44680000Y-140200000D03*
X49760000Y-140200000D03*
X39600000Y-140200000D03*
X65000000Y-126800000D03*
X49760000Y-126800000D03*
X39600000Y-126800000D03*
X44680000Y-126800000D03*
X65000000Y-119200000D03*
X44680000Y-119200000D03*
X49760000Y-119200000D03*
X39600000Y-119200000D03*
X65000000Y-111800000D03*
X49760000Y-111800000D03*
X39600000Y-111800000D03*
X44680000Y-111800000D03*
X65000000Y-104200000D03*
X44680000Y-104200000D03*
X49760000Y-104200000D03*
X39600000Y-104200000D03*
X78000000Y-155200000D03*
X93240000Y-155200000D03*
X103400000Y-155200000D03*
X98320000Y-155200000D03*
X78000000Y-162800000D03*
X98320000Y-162800000D03*
X93240000Y-162800000D03*
X103400000Y-162800000D03*
X78000000Y-140200000D03*
X93240000Y-140200000D03*
X103400000Y-140200000D03*
X98320000Y-140200000D03*
X78000000Y-147800000D03*
X98320000Y-147800000D03*
X93240000Y-147800000D03*
X103400000Y-147800000D03*
X78000000Y-119200000D03*
X93240000Y-119200000D03*
X103400000Y-119200000D03*
X98320000Y-119200000D03*
X78000000Y-126800000D03*
X98320000Y-126800000D03*
X93240000Y-126800000D03*
X103400000Y-126800000D03*
X78000000Y-104200000D03*
X93240000Y-104200000D03*
X103400000Y-104200000D03*
X98320000Y-104200000D03*
X78000000Y-111800000D03*
X98320000Y-111800000D03*
X93240000Y-111800000D03*
X103400000Y-111800000D03*
X65000000Y-36800000D03*
X49760000Y-36800000D03*
X39600000Y-36800000D03*
X44680000Y-36800000D03*
X65000000Y-29200000D03*
X44680000Y-29200000D03*
X49760000Y-29200000D03*
X39600000Y-29200000D03*
X65000000Y-52800000D03*
X49760000Y-52800000D03*
X39600000Y-52800000D03*
X44680000Y-52800000D03*
X65000000Y-45200000D03*
X44680000Y-45200000D03*
X49760000Y-45200000D03*
X39600000Y-45200000D03*
X65000000Y-75800000D03*
X49760000Y-75800000D03*
X39600000Y-75800000D03*
X44680000Y-75800000D03*
X65000000Y-68200000D03*
X44680000Y-68200000D03*
X49760000Y-68200000D03*
X39600000Y-68200000D03*
X65000000Y-90800000D03*
X49760000Y-90800000D03*
X39600000Y-90800000D03*
X44680000Y-90800000D03*
X65000000Y-83200000D03*
X44680000Y-83200000D03*
X49760000Y-83200000D03*
X39600000Y-83200000D03*
X78000000Y-29200000D03*
X93240000Y-29200000D03*
X103400000Y-29200000D03*
X98320000Y-29200000D03*
X78000000Y-36800000D03*
X98320000Y-36800000D03*
X93240000Y-36800000D03*
X103400000Y-36800000D03*
X78000000Y-68200000D03*
X93240000Y-68200000D03*
X103400000Y-68200000D03*
X98320000Y-68200000D03*
X78000000Y-75800000D03*
X98320000Y-75800000D03*
X93240000Y-75800000D03*
X103400000Y-75800000D03*
X78000000Y-83200000D03*
X93240000Y-83200000D03*
X103400000Y-83200000D03*
X98320000Y-83200000D03*
X78000000Y-90800000D03*
X98320000Y-90800000D03*
X93240000Y-90800000D03*
X103400000Y-90800000D03*
D26*
X53000000Y-182500000D03*
D27*
X58080000Y-182500000D03*
X63160000Y-182500000D03*
D17*
X80020000Y-175690000D03*
D18*
X87640000Y-175690000D03*
D28*
X42500000Y-133500000D03*
X30500000Y-144000000D03*
X103000000Y-133000000D03*
X112500000Y-141000000D03*
X34500000Y-55500000D03*
X110000000Y-57000000D03*
X39500000Y-62000000D03*
X50000000Y-62000000D03*
X106500000Y-62000000D03*
X94000000Y-62000000D03*
X34500000Y-121500000D03*
X21000000Y-78500000D03*
X21000000Y-54000000D03*
X29500000Y-129000000D03*
X124000000Y-53500000D03*
X124000000Y-75500000D03*
X112500000Y-121500000D03*
X117500000Y-133500000D03*
D29*
X48500000Y-173000000D02*
X50500000Y-173000000D01*
X53000000Y-175500000D02*
X53000000Y-182500000D01*
X50500000Y-173000000D02*
X53000000Y-175500000D01*
X39500000Y-175000000D02*
X40500000Y-175000000D01*
X40500000Y-175000000D02*
X42500000Y-173000000D01*
X42500000Y-173000000D02*
X48500000Y-173000000D01*
X48500000Y-173000000D02*
X52000000Y-169500000D01*
X52000000Y-169500000D02*
X58500000Y-169500000D01*
X58000000Y-175000000D02*
X58000000Y-174000000D01*
X70000000Y-169000000D02*
X70000000Y-167000000D01*
X67000000Y-172000000D02*
X70000000Y-169000000D01*
X60000000Y-172000000D02*
X67000000Y-172000000D01*
X58000000Y-174000000D02*
X60000000Y-172000000D01*
X58000000Y-175000000D02*
X58000000Y-170000000D01*
X58000000Y-170000000D02*
X58500000Y-169500000D01*
X80000000Y-171000000D02*
X80000000Y-171500000D01*
X80000000Y-171500000D02*
X81500000Y-173000000D01*
X94580000Y-180080000D02*
X99000000Y-180080000D01*
X92000000Y-177500000D02*
X94580000Y-180080000D01*
X92000000Y-176500000D02*
X92000000Y-177500000D01*
X88500000Y-173000000D02*
X92000000Y-176500000D01*
X81500000Y-173000000D02*
X88500000Y-173000000D01*
X73500000Y-167000000D02*
X73500000Y-168000000D01*
X78500000Y-169500000D02*
X80000000Y-171000000D01*
X75000000Y-169500000D02*
X78500000Y-169500000D01*
X73500000Y-168000000D02*
X75000000Y-169500000D01*
X70000000Y-167000000D02*
X73500000Y-167000000D01*
X65000000Y-162800000D02*
X65000000Y-163000000D01*
X65000000Y-163000000D02*
X66500000Y-164500000D01*
X66500000Y-164500000D02*
X66500000Y-166880000D01*
X78000000Y-45200000D02*
X78800000Y-45200000D01*
X78800000Y-45200000D02*
X81000000Y-43000000D01*
X81000000Y-32200000D02*
X78000000Y-29200000D01*
X81000000Y-43000000D02*
X81000000Y-32200000D01*
X82250000Y-48250000D02*
X81050000Y-48250000D01*
X82250000Y-48250000D02*
X82250000Y-63950000D01*
X78000000Y-68200000D02*
X82250000Y-63950000D01*
X81050000Y-48250000D02*
X78000000Y-45200000D01*
X65000000Y-52800000D02*
X65000000Y-52000000D01*
X65000000Y-52000000D02*
X62000000Y-49000000D01*
X62000000Y-39800000D02*
X65000000Y-36800000D01*
X62000000Y-49000000D02*
X62000000Y-39800000D01*
X62250000Y-56000000D02*
X62250000Y-55550000D01*
X62250000Y-55550000D02*
X65000000Y-52800000D01*
X73550000Y-150750000D02*
X78000000Y-155200000D01*
X71300000Y-147800000D02*
X65000000Y-147800000D01*
X78000000Y-158500000D02*
X78000000Y-155200000D01*
X65000000Y-162800000D02*
X68800000Y-162800000D01*
X65000000Y-126800000D02*
X65000000Y-127000000D01*
X65000000Y-127000000D02*
X62750000Y-129250000D01*
X62750000Y-145550000D02*
X65000000Y-147800000D01*
X62750000Y-129250000D02*
X62750000Y-145550000D01*
X65000000Y-111800000D02*
X64950000Y-111800000D01*
X64950000Y-111800000D02*
X62750000Y-114000000D01*
X62750000Y-124550000D02*
X65000000Y-126800000D01*
X62750000Y-114000000D02*
X62750000Y-124550000D01*
X64300000Y-147800000D02*
X65000000Y-147800000D01*
X65000000Y-90800000D02*
X65000000Y-91750000D01*
X65000000Y-91750000D02*
X62500000Y-94250000D01*
X62500000Y-109300000D02*
X65000000Y-111800000D01*
X62500000Y-94250000D02*
X62500000Y-109300000D01*
X65000000Y-75800000D02*
X65000000Y-76000000D01*
X65000000Y-76000000D02*
X62500000Y-78500000D01*
X62500000Y-88300000D02*
X65000000Y-90800000D01*
X62500000Y-78500000D02*
X62500000Y-88300000D01*
X62250000Y-73050000D02*
X65000000Y-75800000D01*
X62250000Y-56000000D02*
X62250000Y-73050000D01*
X78000000Y-29200000D02*
X78700000Y-29200000D01*
X78000000Y-68200000D02*
X79200000Y-68200000D01*
X79200000Y-68200000D02*
X81500000Y-70500000D01*
X81500000Y-70500000D02*
X81500000Y-79700000D01*
X81500000Y-79700000D02*
X78000000Y-83200000D01*
X78000000Y-83200000D02*
X79700000Y-83200000D01*
X79700000Y-83200000D02*
X81250000Y-84750000D01*
X81250000Y-84750000D02*
X81250000Y-100950000D01*
X81250000Y-100950000D02*
X78000000Y-104200000D01*
X78000000Y-104200000D02*
X78700000Y-104200000D01*
X78700000Y-104200000D02*
X81000000Y-106500000D01*
X81000000Y-116200000D02*
X78000000Y-119200000D01*
X81000000Y-106500000D02*
X81000000Y-116200000D01*
X78000000Y-119200000D02*
X78950000Y-119200000D01*
X78950000Y-119200000D02*
X81250000Y-121500000D01*
X81250000Y-121500000D02*
X81250000Y-136250000D01*
X81250000Y-136250000D02*
X78000000Y-139500000D01*
X78000000Y-139500000D02*
X78000000Y-140200000D01*
X78000000Y-140200000D02*
X78700000Y-140200000D01*
X78700000Y-140200000D02*
X80750000Y-142250000D01*
X79800000Y-155200000D02*
X78000000Y-155200000D01*
X80750000Y-154250000D02*
X79800000Y-155200000D01*
X80750000Y-142250000D02*
X80750000Y-154250000D01*
X65000000Y-162800000D02*
X63550000Y-162800000D01*
X63950000Y-147800000D02*
X65000000Y-147800000D01*
X62250000Y-149500000D02*
X63950000Y-147800000D01*
X62250000Y-161500000D02*
X62250000Y-149500000D01*
X63550000Y-162800000D02*
X62250000Y-161500000D01*
X65000000Y-147800000D02*
X65200000Y-147800000D01*
X65000000Y-126800000D02*
X65200000Y-126800000D01*
X65000000Y-111800000D02*
X65200000Y-111800000D01*
X72250000Y-148750000D02*
X71300000Y-147800000D01*
X76000000Y-160500000D02*
X78000000Y-158500000D01*
X70500000Y-160500000D02*
X76000000Y-160500000D01*
X72250000Y-150750000D02*
X73550000Y-150750000D01*
X72250000Y-150750000D02*
X72250000Y-148750000D01*
X69000000Y-162000000D02*
X70500000Y-160500000D01*
X69000000Y-163000000D02*
X69000000Y-162000000D01*
X68800000Y-162800000D02*
X69000000Y-163000000D01*
X80020000Y-175690000D02*
X80750000Y-175690000D01*
X80750000Y-175690000D02*
X82260000Y-177200000D01*
X82260000Y-182420000D02*
X80770000Y-183910000D01*
X82260000Y-177200000D02*
X82260000Y-182420000D01*
X77000000Y-174500000D02*
X78830000Y-174500000D01*
X78830000Y-174500000D02*
X80020000Y-175690000D01*
X74150000Y-174620000D02*
X77390000Y-177860000D01*
X77390000Y-177860000D02*
X77390000Y-183070000D01*
X77390000Y-183070000D02*
X78230000Y-183910000D01*
X73500000Y-174620000D02*
X74150000Y-174620000D01*
X73500000Y-174620000D02*
X73620000Y-174620000D01*
X73500000Y-174620000D02*
X73500000Y-175000000D01*
D30*
X30540000Y-163000000D02*
X25460000Y-163000000D01*
X44680000Y-162800000D02*
X44680000Y-166320000D01*
X30540000Y-166540000D02*
X30540000Y-163000000D01*
X32000000Y-168000000D02*
X30540000Y-166540000D01*
X43000000Y-168000000D02*
X32000000Y-168000000D01*
X44680000Y-166320000D02*
X43000000Y-168000000D01*
X44680000Y-155200000D02*
X44680000Y-162800000D01*
X44680000Y-147800000D02*
X44680000Y-155200000D01*
X44680000Y-140200000D02*
X44680000Y-147800000D01*
X42500000Y-133500000D02*
X44000000Y-133500000D01*
X30500000Y-144000000D02*
X30540000Y-144000000D01*
X30540000Y-144000000D02*
X30500000Y-144000000D01*
X30500000Y-144000000D02*
X30540000Y-144000000D01*
X44680000Y-126800000D02*
X44680000Y-132820000D01*
X44680000Y-132820000D02*
X44000000Y-133500000D01*
X44000000Y-133500000D02*
X42500000Y-133500000D01*
X30540000Y-155000000D02*
X30540000Y-144000000D01*
X44680000Y-119200000D02*
X44680000Y-126800000D01*
X44680000Y-111800000D02*
X44680000Y-119200000D01*
X44680000Y-104200000D02*
X44680000Y-111800000D01*
D31*
X25460000Y-155000000D02*
X30540000Y-155000000D01*
D30*
X98320000Y-155200000D02*
X98320000Y-147800000D01*
X98320000Y-140200000D02*
X98320000Y-147800000D01*
X112460000Y-163000000D02*
X112460000Y-165540000D01*
X98320000Y-166320000D02*
X98320000Y-162800000D01*
X100000000Y-168000000D02*
X98320000Y-166320000D01*
X110000000Y-168000000D02*
X100000000Y-168000000D01*
X112460000Y-165540000D02*
X110000000Y-168000000D01*
X117540000Y-163000000D02*
X112460000Y-163000000D01*
X98320000Y-155200000D02*
X98320000Y-162800000D01*
X112500000Y-141000000D02*
X112460000Y-141000000D01*
X112460000Y-141000000D02*
X112500000Y-141000000D01*
X112500000Y-141000000D02*
X112460000Y-141000000D01*
X112460000Y-155000000D02*
X112460000Y-141000000D01*
X112460000Y-141000000D02*
X112460000Y-138460000D01*
X98320000Y-131320000D02*
X98320000Y-126800000D01*
X103000000Y-133000000D02*
X100000000Y-133000000D01*
X100000000Y-133000000D02*
X98320000Y-131320000D01*
X107000000Y-133000000D02*
X103000000Y-133000000D01*
X112460000Y-138460000D02*
X107000000Y-133000000D01*
X112460000Y-155000000D02*
X117540000Y-155000000D01*
X98320000Y-119200000D02*
X98320000Y-126800000D01*
X98320000Y-111800000D02*
X98320000Y-119200000D01*
X98320000Y-104200000D02*
X98320000Y-111800000D01*
X31540000Y-26000000D02*
X31540000Y-25460000D01*
X31540000Y-25460000D02*
X33000000Y-24000000D01*
X44680000Y-25680000D02*
X44680000Y-29200000D01*
X43000000Y-24000000D02*
X44680000Y-25680000D01*
X33000000Y-24000000D02*
X43000000Y-24000000D01*
X31540000Y-26000000D02*
X26460000Y-26000000D01*
X44680000Y-45200000D02*
X44680000Y-52800000D01*
X44680000Y-36800000D02*
X44680000Y-45200000D01*
X44680000Y-29200000D02*
X44680000Y-36800000D01*
X44680000Y-83200000D02*
X44680000Y-75800000D01*
X34500000Y-55500000D02*
X34000000Y-55000000D01*
X44680000Y-75800000D02*
X44680000Y-68200000D01*
X31540000Y-32000000D02*
X31540000Y-52540000D01*
X31540000Y-52540000D02*
X34000000Y-55000000D01*
X34000000Y-55000000D02*
X36500000Y-57500000D01*
X36500000Y-57500000D02*
X42500000Y-57500000D01*
X42500000Y-57500000D02*
X44680000Y-59680000D01*
X44680000Y-59680000D02*
X44680000Y-68200000D01*
X44680000Y-90800000D02*
X44680000Y-83200000D01*
D31*
X31540000Y-32000000D02*
X26460000Y-32000000D01*
D30*
X98320000Y-29200000D02*
X98320000Y-24680000D01*
X110460000Y-23000000D02*
X112460000Y-25000000D01*
X100000000Y-23000000D02*
X110460000Y-23000000D01*
X98320000Y-24680000D02*
X100000000Y-23000000D01*
X117540000Y-25000000D02*
X112460000Y-25000000D01*
X98320000Y-52800000D02*
X98320000Y-45200000D01*
X98320000Y-45200000D02*
X98320000Y-36800000D01*
X98320000Y-36800000D02*
X98320000Y-29200000D01*
X110000000Y-57000000D02*
X110138007Y-57138007D01*
X110138007Y-57138007D02*
X110223511Y-57138007D01*
X110223511Y-57138007D02*
X110223511Y-57138008D01*
X98320000Y-68200000D02*
X99000000Y-62000000D01*
X112460000Y-52540000D02*
X112460000Y-31000000D01*
X110000000Y-57500000D02*
X110223511Y-57138008D01*
X110223511Y-57138008D02*
X110833417Y-56150221D01*
X110833417Y-56150221D02*
X112460000Y-52540000D01*
X103000000Y-57500000D02*
X110000000Y-57500000D01*
X99000000Y-62000000D02*
X103000000Y-57500000D01*
X112460000Y-31000000D02*
X117540000Y-31000000D01*
X98320000Y-90800000D02*
X98320000Y-83200000D01*
X98320000Y-83200000D02*
X98320000Y-75800000D01*
X98320000Y-75800000D02*
X98320000Y-68200000D01*
X31540000Y-62000000D02*
X39500000Y-62000000D01*
X49760000Y-140200000D02*
X54300000Y-140200000D01*
X54300000Y-140200000D02*
X57000000Y-137500000D01*
X57000000Y-137500000D02*
X57000000Y-66500000D01*
X57000000Y-66500000D02*
X52500000Y-62000000D01*
X52500000Y-62000000D02*
X50000000Y-62000000D01*
X26460000Y-62000000D02*
X31540000Y-62000000D01*
X39600000Y-36800000D02*
X39600000Y-29200000D01*
X39600000Y-45200000D02*
X39600000Y-36800000D01*
X39600000Y-52800000D02*
X39600000Y-45200000D01*
X49760000Y-155200000D02*
X49760000Y-162800000D01*
X49760000Y-147800000D02*
X49760000Y-155200000D01*
X49760000Y-140200000D02*
X49760000Y-147800000D01*
X31540000Y-68000000D02*
X26460000Y-68000000D01*
X39600000Y-68200000D02*
X31740000Y-68200000D01*
X31740000Y-68200000D02*
X31540000Y-68000000D01*
X39600000Y-75800000D02*
X39600000Y-68200000D01*
X39600000Y-83200000D02*
X39600000Y-75800000D01*
X39600000Y-90800000D02*
X39600000Y-83200000D01*
X30000000Y-99000000D02*
X30000000Y-95000000D01*
X34000000Y-91000000D02*
X39600000Y-91000000D01*
X30000000Y-95000000D02*
X34000000Y-91000000D01*
X39600000Y-91000000D02*
X39600000Y-90800000D01*
X39600000Y-90800000D02*
X39600000Y-95600000D01*
X49760000Y-98760000D02*
X49760000Y-104200000D01*
X48000000Y-97000000D02*
X49760000Y-98760000D01*
X41000000Y-97000000D02*
X48000000Y-97000000D01*
X39600000Y-95600000D02*
X41000000Y-97000000D01*
X49760000Y-119200000D02*
X49760000Y-126800000D01*
X49760000Y-111800000D02*
X49760000Y-119200000D01*
X49760000Y-104200000D02*
X49760000Y-111800000D01*
X112460000Y-62000000D02*
X106500000Y-62000000D01*
X93240000Y-140200000D02*
X88700000Y-140200000D01*
X88700000Y-140200000D02*
X87000000Y-138500000D01*
X87000000Y-138500000D02*
X87000000Y-62500000D01*
X87000000Y-62500000D02*
X87500000Y-62000000D01*
X87500000Y-62000000D02*
X94000000Y-62000000D01*
X117540000Y-62000000D02*
X112460000Y-62000000D01*
X103400000Y-36800000D02*
X103400000Y-44400000D01*
X103400000Y-44400000D02*
X103400000Y-45200000D01*
X103400000Y-36800000D02*
X103400000Y-29200000D01*
X103400000Y-52800000D02*
X103400000Y-44400000D01*
X103400000Y-44400000D02*
X103400000Y-45200000D01*
X93240000Y-155200000D02*
X93240000Y-162800000D01*
X93240000Y-147800000D02*
X93240000Y-155200000D01*
X93240000Y-140200000D02*
X93240000Y-147800000D01*
X112460000Y-67000000D02*
X117540000Y-67000000D01*
X115000000Y-98000000D02*
X115000000Y-95000000D01*
X110800000Y-90800000D02*
X103400000Y-90800000D01*
X115000000Y-95000000D02*
X110800000Y-90800000D01*
X112460000Y-67000000D02*
X104600000Y-67000000D01*
X104600000Y-67000000D02*
X103400000Y-68200000D01*
X103400000Y-68200000D02*
X103400000Y-75800000D01*
X103400000Y-75800000D02*
X103400000Y-83200000D01*
X103400000Y-90800000D02*
X103400000Y-83200000D01*
X93240000Y-104200000D02*
X93240000Y-98760000D01*
X103400000Y-94600000D02*
X103400000Y-90800000D01*
X101000000Y-97000000D02*
X103400000Y-94600000D01*
X95000000Y-97000000D02*
X101000000Y-97000000D01*
X93240000Y-98760000D02*
X95000000Y-97000000D01*
X93240000Y-119200000D02*
X93240000Y-126800000D01*
X93240000Y-111800000D02*
X93240000Y-119200000D01*
X93240000Y-104200000D02*
X93240000Y-111800000D01*
X34500000Y-121500000D02*
X34500000Y-112960000D01*
X34500000Y-112960000D02*
X31540000Y-110000000D01*
X21000000Y-54000000D02*
X21000000Y-78500000D01*
X21000000Y-23500000D02*
X21000000Y-54000000D01*
X26000000Y-18500000D02*
X21000000Y-23500000D01*
X44000000Y-18500000D02*
X26000000Y-18500000D01*
X49760000Y-24260000D02*
X44000000Y-18500000D01*
X49760000Y-29200000D02*
X49760000Y-24260000D01*
X26460000Y-110000000D02*
X22000000Y-110000000D01*
X21000000Y-109000000D02*
X21000000Y-78500000D01*
X22000000Y-110000000D02*
X21000000Y-109000000D01*
X26460000Y-110000000D02*
X26460000Y-115640000D01*
X26460000Y-115640000D02*
X23000000Y-119100000D01*
X39600000Y-140200000D02*
X39600000Y-138600000D01*
X39600000Y-138600000D02*
X34500000Y-133500000D01*
X34500000Y-133500000D02*
X34500000Y-121500000D01*
X49760000Y-45200000D02*
X49760000Y-52800000D01*
X49760000Y-45200000D02*
X49760000Y-36800000D01*
X49760000Y-29200000D02*
X49760000Y-36800000D01*
X39600000Y-155200000D02*
X39600000Y-162800000D01*
X39600000Y-147800000D02*
X39600000Y-155200000D01*
X39600000Y-140200000D02*
X39600000Y-147800000D01*
D31*
X31540000Y-110000000D02*
X26460000Y-110000000D01*
D30*
X23000000Y-144500000D02*
X23000000Y-135500000D01*
X23000000Y-135500000D02*
X29500000Y-129000000D01*
X49760000Y-75800000D02*
X49760000Y-68200000D01*
X49760000Y-83200000D02*
X49760000Y-76760000D01*
X49760000Y-76760000D02*
X49760000Y-75800000D01*
X49760000Y-90800000D02*
X49760000Y-83200000D01*
X31540000Y-104000000D02*
X26460000Y-104000000D01*
X39600000Y-104200000D02*
X31740000Y-104200000D01*
X31740000Y-104200000D02*
X31540000Y-104000000D01*
D31*
X39600000Y-119200000D02*
X39600000Y-126800000D01*
X39600000Y-111800000D02*
X39600000Y-119200000D01*
X39600000Y-104200000D02*
X39600000Y-112400000D01*
X39600000Y-112400000D02*
X39600000Y-111800000D01*
D30*
X124000000Y-53500000D02*
X124000000Y-75500000D01*
X112460000Y-110000000D02*
X112460000Y-121460000D01*
X112460000Y-121460000D02*
X112500000Y-121500000D01*
X93240000Y-29200000D02*
X93240000Y-20760000D01*
X93240000Y-20760000D02*
X97000000Y-17000000D01*
X97000000Y-17000000D02*
X114000000Y-17000000D01*
X114000000Y-17000000D02*
X117000000Y-20000000D01*
X117000000Y-20000000D02*
X119500000Y-20000000D01*
X119500000Y-20000000D02*
X124000000Y-24500000D01*
X124000000Y-24500000D02*
X124000000Y-53500000D01*
X123000000Y-110000000D02*
X124000000Y-109000000D01*
X124000000Y-109000000D02*
X124000000Y-75500000D01*
X123000000Y-110000000D02*
X117540000Y-110000000D01*
X117540000Y-110000000D02*
X112460000Y-110000000D01*
X112460000Y-110000000D02*
X112500000Y-110040000D01*
X103400000Y-140200000D02*
X103400000Y-147800000D01*
X121000000Y-117600000D02*
X121000000Y-113460000D01*
X121000000Y-113460000D02*
X117540000Y-110000000D01*
X93240000Y-36800000D02*
X93240000Y-29200000D01*
X93240000Y-45200000D02*
X93240000Y-36800000D01*
X93240000Y-45200000D02*
X93240000Y-52800000D01*
X103400000Y-155200000D02*
X103400000Y-162800000D01*
X103400000Y-147800000D02*
X103400000Y-155200000D01*
X117500000Y-133500000D02*
X116500000Y-132500000D01*
X112460000Y-104000000D02*
X103600000Y-104000000D01*
X103600000Y-104000000D02*
X103400000Y-104200000D01*
X117540000Y-104000000D02*
X112460000Y-104000000D01*
X103400000Y-126800000D02*
X110800000Y-126800000D01*
X121000000Y-137000000D02*
X121000000Y-143000000D01*
X110800000Y-126800000D02*
X116500000Y-132500000D01*
X116500000Y-132500000D02*
X121000000Y-137000000D01*
X93240000Y-83200000D02*
X93240000Y-90800000D01*
X93240000Y-83200000D02*
X93240000Y-75800000D01*
X93240000Y-75800000D02*
X93240000Y-68200000D01*
X103400000Y-104200000D02*
X103400000Y-111800000D01*
X103400000Y-111800000D02*
X103400000Y-119200000D01*
X103400000Y-119200000D02*
X103400000Y-126800000D01*
D29*
X73500000Y-177380000D02*
X73500000Y-179500000D01*
X72040000Y-180960000D02*
X69500000Y-180960000D01*
X73500000Y-179500000D02*
X72040000Y-180960000D01*
X66500000Y-174500000D02*
X66500000Y-178500000D01*
X66500000Y-178500000D02*
X68960000Y-180960000D01*
X68960000Y-180960000D02*
X69500000Y-180960000D01*
X87620000Y-171000000D02*
X95000000Y-171000000D01*
X95000000Y-171000000D02*
X99000000Y-175000000D01*
X77000000Y-166880000D02*
X83500000Y-166880000D01*
X83500000Y-166880000D02*
X87620000Y-171000000D01*
X63080000Y-182000000D02*
X63080000Y-184580000D01*
X63080000Y-184580000D02*
X64500000Y-186000000D01*
X64500000Y-186000000D02*
X73500000Y-186000000D01*
X73500000Y-186000000D02*
X73500000Y-185000000D01*
X87640000Y-175690000D02*
X87640000Y-178910000D01*
X87640000Y-178910000D02*
X87450000Y-179100000D01*
X70000000Y-174620000D02*
X70000000Y-174500000D01*
M02*
